<svg width="173" height="53" viewBox="0 0 173 53" fill="none" xmlns="http://www.w3.org/2000/svg">
<path d="M0.693848 52V2.94531H14.541C18.8086 2.94531 22.582 3.88867 25.8613 5.77539C29.1406 7.66211 31.6675 10.3462 33.4419 13.8276C35.2388 17.3091 36.1484 21.3071 36.1709 25.8218V28.9551C36.1709 33.582 35.2725 37.6362 33.4756 41.1177C31.7012 44.5991 29.1519 47.272 25.8276 49.1362C22.5259 51.0005 18.6738 51.9551 14.2715 52H0.693848ZM7.1626 8.26855V46.7104H13.9683C18.9546 46.7104 22.8291 45.1606 25.5918 42.061C28.377 38.9614 29.7695 34.5479 29.7695 28.8203V25.9565C29.7695 20.3862 28.4556 16.0625 25.8276 12.9854C23.2222 9.88574 19.5161 8.31348 14.7095 8.26855H7.1626ZM62.6187 21.1387C61.6753 20.9814 60.6533 20.9028 59.5527 20.9028C55.4648 20.9028 52.6909 22.6436 51.231 26.125V52H44.998V15.5459H51.0625L51.1636 19.7573C53.2075 16.5005 56.105 14.8721 59.856 14.8721C61.0688 14.8721 61.9897 15.0293 62.6187 15.3438V21.1387ZM75.1519 52H68.9189V15.5459H75.1519V52ZM68.4136 5.87646C68.4136 4.86572 68.7168 4.01221 69.3232 3.31592C69.9521 2.61963 70.873 2.27148 72.0859 2.27148C73.2988 2.27148 74.2197 2.61963 74.8486 3.31592C75.4775 4.01221 75.792 4.86572 75.792 5.87646C75.792 6.88721 75.4775 7.72949 74.8486 8.40332C74.2197 9.07715 73.2988 9.41406 72.0859 9.41406C70.873 9.41406 69.9521 9.07715 69.3232 8.40332C68.7168 7.72949 68.4136 6.88721 68.4136 5.87646ZM91.9302 52H85.6973V0.25H91.9302V52ZM108.708 52H102.476V0.25H108.708V52ZM133.842 52.6738C128.901 52.6738 124.88 51.0566 121.781 47.8223C118.681 44.5654 117.131 40.2192 117.131 34.7837V33.6382C117.131 30.022 117.816 26.7988 119.187 23.9688C120.579 21.1162 122.511 18.8926 124.981 17.2979C127.475 15.6807 130.17 14.8721 133.067 14.8721C137.807 14.8721 141.49 16.4331 144.118 19.5552C146.746 22.6772 148.06 27.147 148.06 32.9644V35.5586H123.364C123.454 39.1523 124.499 42.061 126.498 44.2847C128.519 46.4858 131.08 47.5864 134.179 47.5864C136.38 47.5864 138.245 47.1372 139.772 46.2388C141.299 45.3403 142.636 44.1499 143.781 42.6675L147.588 45.6323C144.534 50.3267 139.952 52.6738 133.842 52.6738ZM133.067 19.9932C130.552 19.9932 128.44 20.9141 126.733 22.7559C125.026 24.5752 123.971 27.1357 123.566 30.4375H141.827V29.9658C141.647 26.7988 140.794 24.3506 139.267 22.6211C137.739 20.8691 135.673 19.9932 133.067 19.9932ZM172.924 21.1387C171.981 20.9814 170.959 20.9028 169.858 20.9028C165.771 20.9028 162.997 22.6436 161.537 26.125V52H155.304V15.5459H161.368L161.469 19.7573C163.513 16.5005 166.411 14.8721 170.162 14.8721C171.375 14.8721 172.295 15.0293 172.924 15.3438V21.1387Z" fill="#2E84BF"/>
</svg>
